<?xml version="1.0" encoding="UTF-8"?>
<!DOCTYPE svg PUBLIC "-//W3C//DTD SVG 1.1//EN" "http://www.w3.org/Graphics/SVG/1.1/DTD/svg11.dtd">
<svg xmlns="http://www.w3.org/2000/svg" version="1.1" width="1050px" height="600px" style="shape-rendering:geometricPrecision; text-rendering:geometricPrecision; image-rendering:optimizeQuality; fill-rule:evenodd; clip-rule:evenodd" xmlns:xlink="http://www.w3.org/1999/xlink">
<g><path style="opacity:0.59" fill="#b3b3b6" d="M 609.5,193.5 C 609.209,194.649 608.376,195.316 607,195.5C 535.939,188.481 464.939,189.147 394,197.5C 391.641,197.676 391.141,197.009 392.5,195.5C 464.773,188.358 537.106,187.691 609.5,193.5 Z"/></g>
<g><path style="opacity:1" fill="#a8a8ab" d="M 609.5,193.5 C 642.704,197.533 675.371,204.033 707.5,213C 710.807,214.195 710.973,215.028 708,215.5C 635.235,201.22 561.735,195.053 487.5,197C 454.613,198.685 421.947,202.352 389.5,208C 363.935,213.299 339.602,221.965 316.5,234C 286.317,251.528 269.65,277.695 266.5,312.5C 257.959,313.538 249.459,314.871 241,316.5C 236.627,320.61 232.127,324.61 227.5,328.5C 220.291,322.491 211.958,318.991 202.5,318C 192.774,317.892 183.107,317.225 173.5,316C 166.93,312.345 164.763,306.845 167,299.5C 169.956,291.715 175.122,286.049 182.5,282.5C 182.735,283.097 183.235,283.43 184,283.5C 195.774,281.797 207.607,281.297 219.5,282C 221.676,282.163 223.509,282.996 225,284.5C 225.186,287.036 225.686,289.369 226.5,291.5C 225.971,296.822 225.471,302.156 225,307.5C 224.313,309.555 223.146,311.221 221.5,312.5C 219.562,307.653 218.062,302.653 217,297.5C 212.322,288.916 205.156,286.082 195.5,289C 190.297,290.118 185.63,292.285 181.5,295.5C 179.813,298.903 180.48,301.736 183.5,304C 194.584,302.16 203.918,305.16 211.5,313C 220.207,317.882 229.207,318.882 238.5,316C 252.462,285.134 266.628,254.301 281,223.5C 286.899,215.463 294.733,210.296 304.5,208C 333.764,203.176 363.097,199.009 392.5,195.5C 391.141,197.009 391.641,197.676 394,197.5C 464.939,189.147 535.939,188.481 607,195.5C 608.376,195.316 609.209,194.649 609.5,193.5 Z"/></g>
<g><path style="opacity:0.785" fill="#b3b3b6" d="M 654.5,216.5 C 653.207,217.158 651.707,217.492 650,217.5C 582.007,208.698 513.84,206.865 445.5,212C 465.514,212.286 485.514,212.953 505.5,214C 499.175,214.5 492.842,214.666 486.5,214.5C 467.31,214.197 448.143,214.531 429,215.5C 424.552,214.291 424.552,213.291 429,212.5C 504.331,204.847 579.497,206.18 654.5,216.5 Z"/></g>
<g><path style="opacity:0.999" fill="#a7a7aa" d="M 654.5,216.5 C 673.87,219.008 693.204,221.842 712.5,225C 718.958,229.124 724.458,234.29 729,240.5C 746.379,263.258 759.546,288.258 768.5,315.5C 765.833,315.833 763.167,316.167 760.5,316.5C 650.228,307.445 539.895,306.445 429.5,313.5C 428.666,312.252 427.333,311.585 425.5,311.5C 405.811,313.077 386.144,314.91 366.5,317C 361.348,317.311 357.681,318.144 355.5,319.5C 311.22,325.218 267.554,334.385 224.5,347C 198.851,355.158 175.184,366.991 153.5,382.5C 152.479,381.998 152.312,381.332 153,380.5C 168.992,366.18 186.826,354.68 206.5,346C 232.577,334.475 259.577,325.641 287.5,319.5C 287.56,320.043 287.893,320.376 288.5,320.5C 333.566,310.158 379.233,304.325 425.5,303C 483.34,301.594 541.173,302.094 599,304.5C 603.833,304.333 608.667,304.167 613.5,304C 614.056,303.617 614.389,303.117 614.5,302.5C 642.52,302.866 670.52,302.366 698.5,301C 707.542,299.542 716.208,296.875 724.5,293C 732.103,288.605 734.603,282.105 732,273.5C 728.15,264.123 722.15,256.457 714,250.5C 713.536,249.906 713.369,249.239 713.5,248.5C 701.262,239.385 687.595,232.885 672.5,229C 644.255,221.972 615.588,217.639 586.5,216C 570.005,215.072 553.505,214.238 537,213.5C 533.098,213.512 529.598,214.179 526.5,215.5C 512.99,215.829 499.656,215.496 486.5,214.5C 492.842,214.666 499.175,214.5 505.5,214C 485.514,212.953 465.514,212.286 445.5,212C 513.84,206.865 582.007,208.698 650,217.5C 651.707,217.492 653.207,217.158 654.5,216.5 Z"/></g>
<g><path style="opacity:0.269" fill="#b1b1b4" d="M 713.5,248.5 C 690.265,235.365 665.265,226.865 638.5,223C 601.335,218.188 564.002,215.688 526.5,215.5C 529.598,214.179 533.098,213.512 537,213.5C 553.505,214.238 570.005,215.072 586.5,216C 615.588,217.639 644.255,221.972 672.5,229C 687.595,232.885 701.262,239.385 713.5,248.5 Z"/></g>
<g><path style="opacity:0.322" fill="#bdbdc0" d="M 226.5,291.5 C 225.686,289.369 225.186,287.036 225,284.5C 223.509,282.996 221.676,282.163 219.5,282C 207.607,281.297 195.774,281.797 184,283.5C 183.235,283.43 182.735,283.097 182.5,282.5C 194.354,280.149 206.354,279.316 218.5,280C 226.231,280.538 228.898,284.371 226.5,291.5 Z"/></g>
<g><path style="opacity:0.999" fill="#a7a7aa" d="M 787.5,281.5 C 797.506,281.334 807.506,281.5 817.5,282C 834.253,284.751 842.086,294.584 841,311.5C 837.92,315.631 833.753,318.131 828.5,319C 818.124,319.161 807.791,319.828 797.5,321C 791.091,323.214 785.091,325.881 779.5,329C 775.534,326.036 771.867,322.703 768.5,319C 769.656,317.385 770.989,317.385 772.5,319C 780.135,320.182 787.469,319.182 794.5,316C 798.777,312.188 803.443,308.855 808.5,306C 813.833,305.667 819.167,305.333 824.5,305C 828.485,301.714 828.485,298.381 824.5,295C 815.481,290.046 806.147,289.046 796.5,292C 791.641,297.557 788.808,304.057 788,311.5C 787.612,312.428 786.945,313.095 786,313.5C 784.115,312.008 783.115,310.008 783,307.5C 781.691,299.869 781.358,292.203 782,284.5C 783.719,283.131 785.552,282.131 787.5,281.5 Z"/></g>
<g><path style="opacity:0.338" fill="#b7b7ba" d="M 614.5,302.5 C 614.389,303.117 614.056,303.617 613.5,304C 608.667,304.167 603.833,304.333 599,304.5C 541.173,302.094 483.34,301.594 425.5,303C 379.233,304.325 333.566,310.158 288.5,320.5C 287.893,320.376 287.56,320.043 287.5,319.5C 323.221,310.657 359.555,305.157 396.5,303C 424.986,301.702 453.486,300.869 482,300.5C 526.164,301.439 570.33,302.106 614.5,302.5 Z"/></g>
<g><path style="opacity:0.463" fill="#b7b7ba" d="M 429.5,313.5 C 404.788,315.059 380.122,317.059 355.5,319.5C 357.681,318.144 361.348,317.311 366.5,317C 386.144,314.91 405.811,313.077 425.5,311.5C 427.333,311.585 428.666,312.252 429.5,313.5 Z"/></g>
<g><path style="opacity:0.999" fill="#a7a7aa" d="M 707.5,336.5 C 706.866,335.053 705.699,334.387 704,334.5C 679.941,336.57 656.108,340.07 632.5,345C 633.094,345.464 633.761,345.631 634.5,345.5C 630.921,346.525 627.254,347.691 623.5,349C 615.5,352.333 615.5,355.667 623.5,359C 652.312,369.57 681.978,372.57 712.5,368C 751.841,366.109 787.507,354.109 819.5,332C 825.076,330.528 829.909,331.695 834,335.5C 842.382,345.548 850.382,355.881 858,366.5C 863.343,376.212 866.343,386.546 867,397.5C 865.667,398.833 864.333,398.833 863,397.5C 860.362,386.571 856.362,376.237 851,366.5C 846.561,360.396 840.728,356.23 833.5,354C 825.125,353.262 816.792,353.595 808.5,355C 784.677,362.386 761.01,370.386 737.5,379C 697.413,391.744 657.08,392.744 616.5,382C 599.386,376.636 583.553,368.803 569,358.5C 568.333,357.167 568.333,355.833 569,354.5C 571.234,352.3 573.734,350.467 576.5,349C 587.931,345.301 599.598,342.634 611.5,341C 639.87,337.921 668.204,334.587 696.5,331C 580.444,322.3 464.777,325.633 349.5,341C 321.458,345.576 293.624,351.076 266,357.5C 263.904,356.285 264.071,355.451 266.5,355C 278.213,351.893 289.88,348.726 301.5,345.5C 301.917,346.124 302.584,346.457 303.5,346.5C 330.282,339.925 357.282,334.425 384.5,330C 418.066,325.548 451.4,321.715 484.5,318.5C 544.872,316.16 605.205,317.66 665.5,323C 694.146,325.814 722.812,328.481 751.5,331C 736.968,333.257 722.301,335.09 707.5,336.5 Z"/></g>
<g><path style="opacity:0.361" fill="#b6b6b9" d="M 484.5,318.5 C 451.4,321.715 418.066,325.548 384.5,330C 357.282,334.425 330.282,339.925 303.5,346.5C 302.584,346.457 301.917,346.124 301.5,345.5C 361.535,330.535 422.535,321.535 484.5,318.5 Z"/></g>
<g><path style="opacity:0.229" fill="#b4b4b6" d="M 707.5,336.5 C 682.975,338.123 658.642,341.123 634.5,345.5C 633.761,345.631 633.094,345.464 632.5,345C 656.108,340.07 679.941,336.57 704,334.5C 705.699,334.387 706.866,335.053 707.5,336.5 Z"/></g>
</svg>
