<?xml version="1.0" encoding="UTF-8"?>
<!DOCTYPE svg PUBLIC "-//W3C//DTD SVG 1.1//EN" "http://www.w3.org/Graphics/SVG/1.1/DTD/svg11.dtd">
<svg xmlns="http://www.w3.org/2000/svg" version="1.1" width="1050px" height="600px" style="shape-rendering:geometricPrecision; text-rendering:geometricPrecision; image-rendering:optimizeQuality; fill-rule:evenodd; clip-rule:evenodd" xmlns:xlink="http://www.w3.org/1999/xlink">
<g><path style="opacity:0.381" fill="#b4b4b7" d="M 200.5,214.5 C 201.376,214.369 202.043,214.702 202.5,215.5C 167.972,217.109 133.639,220.609 99.5,226C 93.8767,226.923 88.8767,229.09 84.5,232.5C 85.0312,230.376 86.3645,228.876 88.5,228C 91.1667,227 93.8333,226 96.5,225C 130.913,218.987 165.58,215.487 200.5,214.5 Z"/></g>
<g><path style="opacity:1" fill="#a8a8ab" d="M 200.5,214.5 C 244.446,211.963 287.779,216.463 330.5,228C 331.833,228.667 333.167,229.333 334.5,230C 286.251,221.459 237.584,218.125 188.5,220C 182.155,220.924 175.822,221.758 169.5,222.5C 168.866,221.053 167.699,220.387 166,220.5C 140.529,222.768 117.029,230.601 95.5,244C 92.7198,245.812 90.2198,247.979 88,250.5C 87.3083,251.437 87.475,252.103 88.5,252.5C 79.9832,261.969 75.3166,272.969 74.5,285.5C 74.1667,277.5 73.8333,277.5 73.5,285.5C 68.8386,285.311 64.3386,285.978 60,287.5C 61.3431,282.956 63.1765,278.456 65.5,274C 65.2716,273.601 64.9382,273.435 64.5,273.5C 69.672,260.81 75.172,248.143 81,235.5C 81.7589,233.937 82.9256,232.937 84.5,232.5C 88.8767,229.09 93.8767,226.923 99.5,226C 133.639,220.609 167.972,217.109 202.5,215.5C 202.043,214.702 201.376,214.369 200.5,214.5 Z"/></g>
<g><path style="opacity:0.998" fill="#aaaaad" d="M 107.5,285.5 C 108.274,286.147 109.274,286.48 110.5,286.5C 156.664,280.597 202.998,278.931 249.5,281.5C 253.893,281.491 257.893,280.824 261.5,279.5C 284.881,281.154 308.214,280.654 331.5,278C 336.301,277.016 340.468,274.85 344,271.5C 344.9,263.216 342.066,256.382 335.5,251C 323.633,243.263 310.633,238.263 296.5,236C 283.251,233.677 269.918,232.011 256.5,231C 226.496,230.299 196.496,229.465 166.5,228.5C 167.025,227.808 167.692,227.308 168.5,227C 216.335,222.769 264.001,224.103 311.5,231C 319.583,232.236 327.583,233.903 335.5,236C 350.371,251.133 360.371,268.8 365.5,289C 291.243,283.089 216.909,283.089 142.5,289C 103.117,291.766 65.1171,300.433 28.5,315C 21.3617,318.403 14.695,322.57 8.5,327.5C 7.16667,326.5 7.16667,325.5 8.5,324.5C 19.7978,314.685 32.4645,307.185 46.5,302C 66.1401,293.906 86.4735,288.406 107.5,285.5 Z"/></g>
<g><path style="opacity:0.345" fill="#b8b8bc" d="M 169.5,222.5 C 144.609,224.385 121.276,231.219 99.5,243C 95.641,246.032 91.9743,249.198 88.5,252.5C 87.475,252.103 87.3083,251.437 88,250.5C 90.2198,247.979 92.7198,245.812 95.5,244C 117.029,230.601 140.529,222.768 166,220.5C 167.699,220.387 168.866,221.053 169.5,222.5 Z"/></g>
<g><path style="opacity:1" fill="#a6a6a9" d="M 41.5,286.5 C 45.7404,288.486 50.0737,289.153 54.5,288.5C 55.0129,290.895 53.8462,292.562 51,293.5C 41.4667,288.713 31.3,286.547 20.5,287C 19.0692,286.535 17.9025,285.701 17,284.5C 16.6012,284.728 16.4346,285.062 16.5,285.5C 15.5318,283.393 15.1984,281.059 15.5,278.5C 16.1174,278.611 16.6174,278.944 17,279.5C 18.6145,274.096 22.1145,270.596 27.5,269C 34.5,268.333 41.5,268.333 48.5,269C 49.553,273.798 49.3863,278.631 48,283.5C 45.5533,271.461 38.7199,267.961 27.5,273C 22.4569,274.869 21.4569,277.869 24.5,282C 30.9984,281.232 36.4984,283.065 41,287.5C 41.3988,287.272 41.5654,286.938 41.5,286.5 Z"/></g>
<g><path style="opacity:0.981" fill="#535356" d="M 413.5,310.5 C 409.22,307.747 406.386,304.081 405,299.5C 407.408,301.956 410.241,303.789 413.5,305C 421.185,305.597 428.852,305.43 436.5,304.5C 443.167,304.5 449.833,304.5 456.5,304.5C 457.5,304.5 458.5,304.5 459.5,304.5C 465.167,304.5 470.833,304.5 476.5,304.5C 477.5,304.5 478.5,304.5 479.5,304.5C 485.5,304.5 491.5,304.5 497.5,304.5C 497.5,303.5 497.5,302.5 497.5,301.5C 498.5,301.5 499.5,301.5 500.5,301.5C 501.058,302.79 502.058,303.623 503.5,304C 507.152,304.499 510.818,304.665 514.5,304.5C 514.5,303.5 514.5,302.5 514.5,301.5C 511.107,301.938 508.107,301.105 505.5,299C 508.318,299.927 511.318,300.427 514.5,300.5C 515.1,299.1 516.1,298.1 517.5,297.5C 519.113,301.609 522.113,304.109 526.5,305C 533.715,306.113 540.715,305.446 547.5,303C 551.284,299.565 552.951,295.231 552.5,290C 552.898,283.403 549.898,279.403 543.5,278C 537.167,277.333 530.833,277.333 524.5,278C 522.004,279.331 520.004,281.164 518.5,283.5C 516.708,283.634 515.042,283.301 513.5,282.5C 513.586,281.504 513.252,280.671 512.5,280C 510.212,279.178 507.878,278.511 505.5,278C 496.84,277.5 488.173,277.334 479.5,277.5C 479.5,278.5 479.5,279.5 479.5,280.5C 487.84,280.334 496.173,280.5 504.5,281C 505.672,281.419 506.672,282.085 507.5,283C 498.35,281.617 489.017,281.117 479.5,281.5C 478.833,281.5 478.167,281.5 477.5,281.5C 467.747,281.917 458.08,281.917 448.5,281.5C 444.833,281.5 441.167,281.5 437.5,281.5C 437.768,279.901 437.434,278.568 436.5,277.5C 428.493,277.334 420.493,277.5 412.5,278C 409.283,280.227 407.283,279.393 406.5,275.5C 408.819,273.607 411.486,272.274 414.5,271.5C 414.369,272.376 414.702,273.043 415.5,273.5C 418.78,272.872 422.113,272.539 425.5,272.5C 453.16,273.252 480.827,273.752 508.5,274C 510.518,274.505 512.518,275.005 514.5,275.5C 521.182,272.835 528.182,271.169 535.5,270.5C 539.872,270.908 544.205,271.574 548.5,272.5C 589.484,271.35 630.484,271.184 671.5,272C 673.188,274.825 674.021,277.991 674,281.5C 674.25,278.15 675.083,274.983 676.5,272C 717.835,272.571 759.168,272.571 800.5,272C 801.996,274.201 802.996,276.701 803.5,279.5C 806.587,275.587 810.587,273.087 815.5,272C 825.156,270.198 834.823,270.198 844.5,272C 845.849,272.772 846.682,273.939 847,275.5C 847.465,274.069 848.299,272.903 849.5,272C 857.827,270.109 866.16,270.109 874.5,272C 875.701,272.903 876.535,274.069 877,275.5C 877.465,274.069 878.299,272.903 879.5,272C 890.167,271.333 900.833,271.333 911.5,272C 917.797,272.305 921.63,275.471 923,281.5C 924.441,278.12 926.274,274.953 928.5,272C 936.494,270.094 944.494,270.094 952.5,272C 955.231,274.626 957.064,277.793 958,281.5C 962.293,274.835 968.459,271.335 976.5,271C 995.826,271.101 1015.16,271.434 1034.5,272C 1035.11,284.768 1035.11,297.601 1034.5,310.5C 1012.5,310.667 990.497,310.5 968.5,310C 967.5,309.5 966.5,309 965.5,308.5C 940.147,309.824 914.647,310.491 889,310.5C 863.833,310.333 838.667,310.167 813.5,310C 809.278,308.974 805.778,306.807 803,303.5C 802.749,305.433 802.249,307.266 801.5,309C 795.411,310.101 789.245,310.601 783,310.5C 767.499,309.854 751.999,309.187 736.5,308.5C 728.947,309.004 721.447,309.004 714,308.5C 704.304,311.164 694.637,311.164 685,308.5C 684.25,309.126 683.416,309.626 682.5,310C 638.167,310.667 593.833,310.667 549.5,310C 549,309.5 548.5,309 548,308.5C 538.865,312.466 529.699,312.466 520.5,308.5C 519.5,309 518.5,309.5 517.5,310C 485.991,310.216 454.491,310.716 423,311.5C 419.8,311.344 416.633,311.011 413.5,310.5 Z M 621.5,285.5 C 622.978,285.238 624.311,285.571 625.5,286.5C 624.833,286.833 624.167,287.167 623.5,287.5C 622.287,287.253 621.62,286.586 621.5,285.5 Z M 784.5,286.5 C 784.5,287.167 784.167,287.5 783.5,287.5C 782.325,287.719 781.325,287.386 780.5,286.5C 781.958,285.218 783.292,285.218 784.5,286.5 Z M 1013.5,285.5 C 1014.98,285.238 1016.31,285.571 1017.5,286.5C 1016.83,286.833 1016.17,287.167 1015.5,287.5C 1014.29,287.253 1013.62,286.586 1013.5,285.5 Z M 697.5,286.5 C 699.357,289.018 701.19,289.018 703,286.5C 703.495,288.473 703.662,290.473 703.5,292.5C 701.5,292.833 699.5,293.167 697.5,293.5C 697.5,291.167 697.5,288.833 697.5,286.5 Z M 827.5,286.5 C 827.5,287.833 826.833,288.5 825.5,288.5C 823.803,290.305 822.97,292.639 823,295.5C 821.287,292.985 821.12,290.318 822.5,287.5C 824.071,286.691 825.738,286.357 827.5,286.5 Z M 899.5,286.5 C 900.978,286.238 902.311,286.571 903.5,287.5C 902.833,287.833 902.167,288.167 901.5,288.5C 900.287,288.253 899.62,287.586 899.5,286.5 Z M 998.5,286.5 C 999.638,289.304 999.805,292.304 999,295.5C 996.021,292.782 995.854,289.782 998.5,286.5 Z M 979.5,287.5 C 978.631,289.717 978.298,292.05 978.5,294.5C 977.12,294.038 976.453,293.038 976.5,291.5C 976.561,289.347 977.561,288.014 979.5,287.5 Z M 664.5,290.5 C 666.616,292.088 666.949,294.088 665.5,296.5C 664.534,294.604 664.201,292.604 664.5,290.5 Z M 621.5,294.5 C 624.797,294.329 625.131,294.995 622.5,296.5C 621.702,296.043 621.369,295.376 621.5,294.5 Z M 780.5,294.5 C 781.978,294.238 783.311,294.571 784.5,295.5C 783.833,295.833 783.167,296.167 782.5,296.5C 781.287,296.253 780.62,295.586 780.5,294.5 Z"/></g>
<g><path style="opacity:0.706" fill="#646466" d="M 514.5,275.5 C 512.518,275.005 510.518,274.505 508.5,274C 480.827,273.752 453.16,273.252 425.5,272.5C 422.113,272.539 418.78,272.872 415.5,273.5C 414.702,273.043 414.369,272.376 414.5,271.5C 418.153,271.112 421.82,270.779 425.5,270.5C 452.491,271.28 479.491,271.78 506.5,272C 508.5,272.5 510.5,273 512.5,273.5C 513.713,273.747 514.38,274.414 514.5,275.5 Z"/></g>
<g><path style="opacity:0.525" fill="#b5b5b8" d="M 41.5,286.5 C 41.5654,286.938 41.3988,287.272 41,287.5C 36.4984,283.065 30.9984,281.232 24.5,282C 21.4569,277.869 22.4569,274.869 27.5,273C 38.7199,267.961 45.5533,271.461 48,283.5C 49.3863,278.631 49.553,273.798 48.5,269C 41.5,268.333 34.5,268.333 27.5,269C 22.1145,270.596 18.6145,274.096 17,279.5C 16.6174,278.944 16.1174,278.611 15.5,278.5C 17.5851,273.845 20.9185,270.345 25.5,268C 33.5,267.333 41.5,267.333 49.5,268C 50.9797,269.299 51.6464,270.966 51.5,273C 50.7467,277.18 49.9134,281.347 49,285.5C 48.586,285.957 48.086,286.291 47.5,286.5C 45.9293,284.118 45.096,281.451 45,278.5C 43.5248,274.671 40.6915,272.671 36.5,272.5C 34.1807,273.064 31.8474,273.564 29.5,274C 26.791,274.541 24.791,276.041 23.5,278.5C 24.1667,279.167 24.8333,279.833 25.5,280.5C 29.1224,281.325 32.789,281.825 36.5,282C 38.6605,282.996 40.3272,284.496 41.5,286.5 Z"/></g>
<g><path style="opacity:0.999" fill="#a2a2a5" d="M 517.5,297.5 C 517.226,292.737 517.559,288.07 518.5,283.5C 520.004,281.164 522.004,279.331 524.5,278C 530.833,277.333 537.167,277.333 543.5,278C 549.898,279.403 552.898,283.403 552.5,290C 552.951,295.231 551.284,299.565 547.5,303C 540.715,305.446 533.715,306.113 526.5,305C 522.113,304.109 519.113,301.609 517.5,297.5 Z M 533.5,286.5 C 534.239,286.369 534.906,286.536 535.5,287C 532.827,294.46 532.16,294.293 533.5,286.5 Z"/></g>
<g><path style="opacity:1" fill="#a1a1a4" d="M 839.5,287.5 C 838.167,287.5 836.833,287.5 835.5,287.5C 835.756,285.208 835.423,283.041 834.5,281C 829.5,280.333 824.5,280.333 819.5,281C 818.328,281.419 817.328,282.085 816.5,283C 822.081,282.598 827.747,282.431 833.5,282.5C 833.5,284.167 833.5,285.833 833.5,287.5C 831.508,287.672 829.842,287.005 828.5,285.5C 827.893,285.624 827.56,285.957 827.5,286.5C 825.738,286.357 824.071,286.691 822.5,287.5C 821.12,290.318 821.287,292.985 823,295.5C 822.97,292.639 823.803,290.305 825.5,288.5C 827.635,290.369 830.302,291.036 833.5,290.5C 833.5,293.833 833.5,297.167 833.5,300.5C 828.821,300.666 824.155,300.499 819.5,300C 817.714,299.215 816.214,298.049 815,296.5C 814.91,298.768 816.077,300.268 818.5,301C 823.823,301.499 829.156,301.666 834.5,301.5C 834.5,297.833 834.5,294.167 834.5,290.5C 836.167,290.5 837.833,290.5 839.5,290.5C 839.5,295.167 839.5,299.833 839.5,304.5C 830.779,305.931 822.113,305.764 813.5,304C 808.179,301.433 805.846,297.099 806.5,291C 806.526,283.637 810.192,279.304 817.5,278C 825.167,277.333 832.833,277.333 840.5,278C 841.61,280.737 841.777,283.571 841,286.5C 840.617,287.056 840.117,287.389 839.5,287.5 Z"/></g>
<g><path style="opacity:1" fill="#a0a0a3" d="M 879.5,296.5 C 880.806,297.467 881.473,298.801 881.5,300.5C 879.143,300.663 876.81,300.497 874.5,300C 873.944,299.617 873.611,299.117 873.5,298.5C 872.397,294.503 870.731,290.836 868.5,287.5C 867.545,285.254 866.878,282.921 866.5,280.5C 862.774,280.177 859.107,280.511 855.5,281.5C 852.902,287.459 850.402,293.459 848,299.5C 846.301,300.406 844.467,300.739 842.5,300.5C 842.5,299.5 842.5,298.5 842.5,297.5C 843.172,296.733 844.005,296.066 845,295.5C 847.802,289.586 850.302,283.586 852.5,277.5C 858.868,277.17 865.202,277.504 871.5,278.5C 873.996,284.685 876.663,290.685 879.5,296.5 Z"/></g>
<g><path style="opacity:0.999" fill="#9f9fa2" d="M 438.5,277.5 C 444.833,277.5 451.167,277.5 457.5,277.5C 457.5,278.5 457.5,279.5 457.5,280.5C 451.167,280.5 444.833,280.5 438.5,280.5C 438.5,279.5 438.5,278.5 438.5,277.5 Z"/></g>
<g><path style="opacity:1" fill="#a0a0a3" d="M 587.5,281.5 C 584.136,287.221 581.136,293.221 578.5,299.5C 576.337,293.183 573.67,287.183 570.5,281.5C 565.36,280.512 560.026,280.179 554.5,280.5C 554.5,279.5 554.5,278.5 554.5,277.5C 561.508,277.334 568.508,277.5 575.5,278C 576.692,279.912 577.692,281.912 578.5,284C 579.793,284.49 581.127,284.657 582.5,284.5C 582.665,282.173 583.331,280.007 584.5,278C 590.825,277.5 597.158,277.334 603.5,277.5C 603.5,278.5 603.5,279.5 603.5,280.5C 597.974,280.179 592.64,280.512 587.5,281.5 Z"/></g>
<g><path style="opacity:1" fill="#a0a0a3" d="M 647.5,277.5 C 653.833,277.5 660.167,277.5 666.5,277.5C 666.5,278.5 666.5,279.5 666.5,280.5C 660.167,280.5 653.833,280.5 647.5,280.5C 647.5,279.5 647.5,278.5 647.5,277.5 Z"/></g>
<g><path style="opacity:1" fill="#a0a0a3" d="M 699.5,280.5 C 693.167,280.5 686.833,280.5 680.5,280.5C 680.5,279.5 680.5,278.5 680.5,277.5C 686.833,277.5 693.167,277.5 699.5,277.5C 699.5,278.5 699.5,279.5 699.5,280.5 Z"/></g>
<g><path style="opacity:1" fill="#a0a0a3" d="M 719.5,280.5 C 713.5,280.5 707.5,280.5 701.5,280.5C 701.5,279.5 701.5,278.5 701.5,277.5C 707.5,277.5 713.5,277.5 719.5,277.5C 719.5,278.5 719.5,279.5 719.5,280.5 Z"/></g>
<g><path style="opacity:1" fill="#a1a1a4" d="M 742.5,277.5 C 742.5,278.5 742.5,279.5 742.5,280.5C 735.5,280.5 728.5,280.5 721.5,280.5C 721.5,279.5 721.5,278.5 721.5,277.5C 728.5,277.5 735.5,277.5 742.5,277.5 Z"/></g>
<g><path style="opacity:1" fill="#a0a0a3" d="M 762.5,280.5 C 756.402,281.117 750.735,280.45 745.5,278.5C 750.975,277.511 756.642,277.178 762.5,277.5C 762.5,278.5 762.5,279.5 762.5,280.5 Z"/></g>
<g><path style="opacity:1" fill="#a1a1a4" d="M 764.5,277.5 C 775.167,277.5 785.833,277.5 796.5,277.5C 796.492,280.545 796.159,283.545 795.5,286.5C 794.167,286.5 792.833,286.5 791.5,286.5C 791.5,284.5 791.5,282.5 791.5,280.5C 782.5,280.5 773.5,280.5 764.5,280.5C 764.5,279.5 764.5,278.5 764.5,277.5 Z"/></g>
<g><path style="opacity:1" fill="#9f9fa2" d="M 997.5,277.5 C 1008.17,277.5 1018.83,277.5 1029.5,277.5C 1029.66,280.518 1029.5,283.518 1029,286.5C 1027.64,287.38 1026.14,287.714 1024.5,287.5C 1024.5,285.167 1024.5,282.833 1024.5,280.5C 1015.5,280.5 1006.5,280.5 997.5,280.5C 997.5,279.5 997.5,278.5 997.5,277.5 Z"/></g>
<g><path style="opacity:1" fill="#9e9ea1" d="M 459.5,277.5 C 465.5,277.5 471.5,277.5 477.5,277.5C 477.5,278.5 477.5,279.5 477.5,280.5C 471.5,280.5 465.5,280.5 459.5,280.5C 459.5,279.5 459.5,278.5 459.5,277.5 Z"/></g>
<g><path style="opacity:0.303" fill="#bdbdc0" d="M 261.5,279.5 C 257.893,280.824 253.893,281.491 249.5,281.5C 202.998,278.931 156.664,280.597 110.5,286.5C 109.274,286.48 108.274,286.147 107.5,285.5C 130.678,281.963 154.011,279.796 177.5,279C 205.502,278.577 233.502,278.744 261.5,279.5 Z"/></g>
<g><path style="opacity:1" fill="#747477" d="M 680.5,280.5 C 686.833,280.5 693.167,280.5 699.5,280.5C 699.5,281.167 699.5,281.833 699.5,282.5C 693.167,283.833 686.833,283.833 680.5,282.5C 680.5,281.833 680.5,281.167 680.5,280.5 Z"/></g>
<g><path style="opacity:1" fill="#747477" d="M 701.5,280.5 C 707.5,280.5 713.5,280.5 719.5,280.5C 719.784,282.415 719.451,284.081 718.5,285.5C 718.5,284.5 718.5,283.5 718.5,282.5C 716.167,282.5 713.833,282.5 711.5,282.5C 711.671,285.797 711.005,286.131 709.5,283.5C 706.914,282.52 704.247,282.187 701.5,282.5C 701.5,281.833 701.5,281.167 701.5,280.5 Z"/></g>
<g><path style="opacity:1" fill="#747477" d="M 742.5,277.5 C 743.268,278.263 743.768,279.263 744,280.5C 744.278,279.584 744.778,278.918 745.5,278.5C 750.735,280.45 756.402,281.117 762.5,280.5C 762.5,281.167 762.5,281.833 762.5,282.5C 760.05,282.298 757.717,282.631 755.5,283.5C 755.167,283.5 754.833,283.5 754.5,283.5C 746.99,282.18 739.323,282.18 731.5,283.5C 732.811,284.258 733.311,285.258 733,286.5C 729.96,283.034 726.126,281.7 721.5,282.5C 721.5,281.833 721.5,281.167 721.5,280.5C 728.5,280.5 735.5,280.5 742.5,280.5C 742.5,279.5 742.5,278.5 742.5,277.5 Z"/></g>
<g><path style="opacity:0.998" fill="#a2a2a5" d="M 513.5,282.5 C 513.663,284.857 513.497,287.19 513,289.5C 509.464,292.683 509.798,295.349 514,297.5C 514.483,298.448 514.649,299.448 514.5,300.5C 511.318,300.427 508.318,299.927 505.5,299C 508.107,301.105 511.107,301.938 514.5,301.5C 514.5,302.5 514.5,303.5 514.5,304.5C 510.818,304.665 507.152,304.499 503.5,304C 502.058,303.623 501.058,302.79 500.5,301.5C 500.5,300.833 500.167,300.5 499.5,300.5C 492.988,299.833 486.321,299.167 479.5,298.5C 480.612,297.735 481.279,296.735 481.5,295.5C 482.069,291.671 481.402,288.337 479.5,285.5C 479.5,284.167 479.5,282.833 479.5,281.5C 489.017,281.117 498.35,281.617 507.5,283C 506.672,282.085 505.672,281.419 504.5,281C 496.173,280.5 487.84,280.334 479.5,280.5C 479.5,279.5 479.5,278.5 479.5,277.5C 488.173,277.334 496.84,277.5 505.5,278C 507.878,278.511 510.212,279.178 512.5,280C 513.252,280.671 513.586,281.504 513.5,282.5 Z M 496.5,286.5 C 497.675,286.281 498.675,286.614 499.5,287.5C 497.948,288.798 496.948,288.465 496.5,286.5 Z"/></g>
<g><path style="opacity:1" fill="#747477" d="M 529.5,280.5 C 533.182,280.335 536.848,280.501 540.5,281C 542.555,281.687 544.221,282.854 545.5,284.5C 543.877,285.476 542.543,284.976 541.5,283C 537.167,282.333 532.833,282.333 528.5,283C 527.534,284.678 526.201,285.345 524.5,285C 526.063,283.264 527.73,281.764 529.5,280.5 Z"/></g>
<g><path style="opacity:1" fill="#a3a3a6" d="M 563.5,281.5 C 565.5,281.5 567.5,281.5 569.5,281.5C 571.757,287.099 573.923,292.766 576,298.5C 576.368,299.91 577.201,300.91 578.5,301.5C 582.778,295.35 586.111,288.684 588.5,281.5C 590.735,281.205 592.735,281.539 594.5,282.5C 594.5,288.167 594.5,293.833 594.5,299.5C 592.076,299.808 589.743,299.474 587.5,298.5C 589.457,295.432 589.957,292.099 589,288.5C 587.256,289.649 587.089,290.983 588.5,292.5C 586.351,293.308 585.018,295.308 584.5,298.5C 583.962,300.117 583.629,301.784 583.5,303.5C 579.936,304.423 576.269,304.756 572.5,304.5C 572.371,302.784 572.038,301.117 571.5,299.5C 571.291,298.078 570.791,296.745 570,295.5C 569,296.833 568,296.833 567,295.5C 566.689,296.742 567.189,297.742 568.5,298.5C 566.955,299.452 565.288,299.785 563.5,299.5C 563.5,293.5 563.5,287.5 563.5,281.5 Z"/></g>
<g><path style="opacity:0.994" fill="#9f9fa2" d="M 637.5,283.5 C 636.596,284.209 636.263,285.209 636.5,286.5C 634.011,286.298 631.677,286.798 629.5,288C 631.192,289.401 631.859,291.234 631.5,293.5C 624.833,294.167 624.833,294.833 631.5,295.5C 631.5,297.167 631.5,298.833 631.5,300.5C 619.249,300.224 607.083,300.224 595,300.5C 591.318,300.328 587.818,299.661 584.5,298.5C 585.018,295.308 586.351,293.308 588.5,292.5C 587.089,290.983 587.256,289.649 589,288.5C 589.957,292.099 589.457,295.432 587.5,298.5C 589.743,299.474 592.076,299.808 594.5,299.5C 594.5,293.833 594.5,288.167 594.5,282.5C 597.946,280.828 601.113,281.161 604,283.5C 613.243,281.706 622.743,280.873 632.5,281C 623.506,280.5 614.506,280.334 605.5,280.5C 605.5,279.5 605.5,278.5 605.5,277.5C 616.167,277.5 626.833,277.5 637.5,277.5C 637.5,279.5 637.5,281.5 637.5,283.5 Z M 621.5,285.5 C 621.62,286.586 622.287,287.253 623.5,287.5C 624.167,287.167 624.833,286.833 625.5,286.5C 624.311,285.571 622.978,285.238 621.5,285.5 Z M 621.5,294.5 C 621.369,295.376 621.702,296.043 622.5,296.5C 625.131,294.995 624.797,294.329 621.5,294.5 Z"/></g>
<g><path style="opacity:0.999" fill="#9e9ea1" d="M 647.5,281.5 C 650.167,281.5 652.833,281.5 655.5,281.5C 655.833,288.167 656.167,288.167 656.5,281.5C 660.182,281.335 663.848,281.501 667.5,282C 668.013,284.718 668.013,287.551 667.5,290.5C 669.167,290.5 670.833,290.5 672.5,290.5C 672.5,293.833 672.5,297.167 672.5,300.5C 667.167,300.5 661.833,300.5 656.5,300.5C 656.167,292.5 655.833,292.5 655.5,300.5C 652.833,300.5 650.167,300.5 647.5,300.5C 647.5,299.5 647.5,298.5 647.5,297.5C 648.5,297.5 649.5,297.5 650.5,297.5C 650.5,293.167 650.5,288.833 650.5,284.5C 649.5,284.5 648.5,284.5 647.5,284.5C 647.5,283.5 647.5,282.5 647.5,281.5 Z M 664.5,290.5 C 664.201,292.604 664.534,294.604 665.5,296.5C 666.949,294.088 666.616,292.088 664.5,290.5 Z"/></g>
<g><path style="opacity:0.998" fill="#9f9fa2" d="M 764.5,281.5 C 773.167,281.5 781.833,281.5 790.5,281.5C 790.5,283.167 790.5,284.833 790.5,286.5C 788.5,286.5 786.5,286.5 784.5,286.5C 783.292,285.218 781.958,285.218 780.5,286.5C 781.325,287.386 782.325,287.719 783.5,287.5C 785.607,288.468 787.941,288.802 790.5,288.5C 790.5,292.5 790.5,296.5 790.5,300.5C 778.299,300.217 766.299,299.883 754.5,299.5C 752.189,296.853 749.856,294.186 747.5,291.5C 750.494,289.173 753.161,286.506 755.5,283.5C 757.717,282.631 760.05,282.298 762.5,282.5C 762.5,283.5 762.5,284.5 762.5,285.5C 760.61,285.297 759.11,285.963 758,287.5C 755.681,294.005 757.847,297.338 764.5,297.5C 765.5,297.5 766.5,297.5 767.5,297.5C 767.5,293.167 767.5,288.833 767.5,284.5C 766.5,284.5 765.5,284.5 764.5,284.5C 764.5,283.5 764.5,282.5 764.5,281.5 Z M 780.5,294.5 C 780.62,295.586 781.287,296.253 782.5,296.5C 783.167,296.167 783.833,295.833 784.5,295.5C 783.311,294.571 781.978,294.238 780.5,294.5 Z"/></g>
<g><path style="opacity:0.994" fill="#78787b" d="M 839.5,287.5 C 838.048,288.302 836.382,288.802 834.5,289C 836.577,289.192 838.577,289.692 840.5,290.5C 841.067,292.982 841.734,295.316 842.5,297.5C 842.5,298.5 842.5,299.5 842.5,300.5C 841.075,298.969 840.409,299.302 840.5,301.5C 840.737,302.791 840.404,303.791 839.5,304.5C 839.5,299.833 839.5,295.167 839.5,290.5C 837.833,290.5 836.167,290.5 834.5,290.5C 834.5,294.167 834.5,297.833 834.5,301.5C 829.156,301.666 823.823,301.499 818.5,301C 816.077,300.268 814.91,298.768 815,296.5C 816.214,298.049 817.714,299.215 819.5,300C 824.155,300.499 828.821,300.666 833.5,300.5C 833.5,297.167 833.5,293.833 833.5,290.5C 830.302,291.036 827.635,290.369 825.5,288.5C 826.833,288.5 827.5,287.833 827.5,286.5C 827.56,285.957 827.893,285.624 828.5,285.5C 829.842,287.005 831.508,287.672 833.5,287.5C 833.5,285.833 833.5,284.167 833.5,282.5C 827.747,282.431 822.081,282.598 816.5,283C 817.328,282.085 818.328,281.419 819.5,281C 824.5,280.333 829.5,280.333 834.5,281C 835.423,283.041 835.756,285.208 835.5,287.5C 836.833,287.5 838.167,287.5 839.5,287.5 Z"/></g>
<g><path style="opacity:0.999" fill="#a1a1a4" d="M 916.5,290.5 C 911.541,292.037 911.541,294.037 916.5,296.5C 917.5,296.5 918.5,296.5 919.5,296.5C 919.5,297.833 919.5,299.167 919.5,300.5C 917.473,300.662 915.473,300.495 913.5,300C 911.631,298.398 909.631,297.398 907.5,297C 910.25,300.707 913.916,302.207 918.5,301.5C 918.5,302.5 918.5,303.5 918.5,304.5C 914.486,304.666 910.486,304.499 906.5,304C 904.561,302.568 903.228,300.735 902.5,298.5C 901.766,297.292 901.433,295.959 901.5,294.5C 900.5,294.5 899.5,294.5 898.5,294.5C 898.227,296.451 898.893,297.951 900.5,299C 898.19,299.497 895.857,299.663 893.5,299.5C 893.5,293.5 893.5,287.5 893.5,281.5C 899.665,281.268 905.665,281.768 911.5,283C 910.672,282.085 909.672,281.419 908.5,281C 900.173,280.5 891.84,280.334 883.5,280.5C 883.5,279.5 883.5,278.5 883.5,277.5C 893.566,277.105 903.566,277.605 913.5,279C 914.931,279.465 916.097,280.299 917,281.5C 917.634,284.555 917.468,287.555 916.5,290.5 Z M 899.5,286.5 C 899.62,287.586 900.287,288.253 901.5,288.5C 902.167,288.167 902.833,287.833 903.5,287.5C 902.311,286.571 900.978,286.238 899.5,286.5 Z"/></g>
<g><path style="opacity:1" fill="#9e9ea1" d="M 995.5,284.5 C 996.404,283.791 996.737,282.791 996.5,281.5C 1005.5,281.5 1014.5,281.5 1023.5,281.5C 1023.5,283.5 1023.5,285.5 1023.5,287.5C 1016.83,287.833 1016.83,288.167 1023.5,288.5C 1023.5,290.167 1023.5,291.833 1023.5,293.5C 1016.83,294.167 1016.83,294.833 1023.5,295.5C 1023.5,297.167 1023.5,298.833 1023.5,300.5C 1014.36,300.363 1005.36,300.03 996.5,299.5C 995.548,301.045 995.215,302.712 995.5,304.5C 986.444,305.894 977.444,305.727 968.5,304C 963.272,301.503 960.939,297.337 961.5,291.5C 961.374,285.915 963.708,281.748 968.5,279C 977.418,277.586 986.418,277.086 995.5,277.5C 995.5,279.833 995.5,282.167 995.5,284.5 Z M 1013.5,285.5 C 1013.62,286.586 1014.29,287.253 1015.5,287.5C 1016.17,287.167 1016.83,286.833 1017.5,286.5C 1016.31,285.571 1014.98,285.238 1013.5,285.5 Z M 998.5,286.5 C 995.854,289.782 996.021,292.782 999,295.5C 999.805,292.304 999.638,289.304 998.5,286.5 Z M 979.5,287.5 C 978.631,289.717 978.298,292.05 978.5,294.5C 977.12,294.038 976.453,293.038 976.5,291.5C 976.561,289.347 977.561,288.014 979.5,287.5 Z"/></g>
<g><path style="opacity:0.994" fill="#9f9fa2" d="M 561.5,288.5 C 561.5,291.5 561.5,294.5 561.5,297.5C 561.5,298.5 561.5,299.5 561.5,300.5C 559.167,300.5 556.833,300.5 554.5,300.5C 555.912,297.574 556.578,294.407 556.5,291C 556.003,287.759 555.336,284.592 554.5,281.5C 556.833,281.5 559.167,281.5 561.5,281.5C 561.5,283.833 561.5,286.167 561.5,288.5 Z"/></g>
<g><path style="opacity:0.999" fill="#a2a2a5" d="M 680.5,282.5 C 686.833,283.833 693.167,283.833 699.5,282.5C 700.167,285.167 700.833,285.167 701.5,282.5C 704.247,282.187 706.914,282.52 709.5,283.5C 711.005,286.131 711.671,285.797 711.5,282.5C 713.833,282.5 716.167,282.5 718.5,282.5C 718.5,283.5 718.5,284.5 718.5,285.5C 716.889,290.167 715.722,295.167 715,300.5C 710.804,304.425 705.804,306.091 700,305.5C 686.04,306.028 680.54,299.361 683.5,285.5C 682.5,285.5 681.5,285.5 680.5,285.5C 680.5,284.5 680.5,283.5 680.5,282.5 Z M 697.5,286.5 C 697.5,288.833 697.5,291.167 697.5,293.5C 699.5,293.167 701.5,292.833 703.5,292.5C 703.662,290.473 703.495,288.473 703,286.5C 701.19,289.018 699.357,289.018 697.5,286.5 Z"/></g>
<g><path style="opacity:0.998" fill="#a2a2a5" d="M 721.5,282.5 C 726.126,281.7 729.96,283.034 733,286.5C 733.311,285.258 732.811,284.258 731.5,283.5C 739.323,282.18 746.99,282.18 754.5,283.5C 751.303,285.934 748.303,288.601 745.5,291.5C 747.65,294.151 749.983,296.651 752.5,299C 748.789,299.825 745.122,299.659 741.5,298.5C 742.167,297.833 742.833,297.167 743.5,296.5C 742.52,295.019 741.353,293.685 740,292.5C 738.647,293.685 737.48,295.019 736.5,296.5C 737.167,297.167 737.833,297.833 738.5,298.5C 735.554,299.655 732.554,299.821 729.5,299C 732.851,296.586 734.851,293.753 735.5,290.5C 732.84,293.494 730.173,296.494 727.5,299.5C 725.621,300.341 723.621,300.675 721.5,300.5C 721.5,299.167 721.5,297.833 721.5,296.5C 730.833,292.833 730.833,289.167 721.5,285.5C 721.5,284.5 721.5,283.5 721.5,282.5 Z"/></g>
<g><path style="opacity:0.999" fill="#a2a2a6" d="M 867.5,288.5 C 869.229,292.021 870.562,295.687 871.5,299.5C 868.102,299.82 864.768,299.487 861.5,298.5C 862.729,297.719 864.062,297.219 865.5,297C 861.833,293.667 858.167,293.667 854.5,297C 859.73,298.102 859.73,298.935 854.5,299.5C 852.667,299.415 851.334,298.748 850.5,297.5C 852.401,292.633 854.401,287.8 856.5,283C 859.554,282.179 862.554,282.345 865.5,283.5C 866.456,285.075 867.123,286.742 867.5,288.5 Z"/></g>
<g><path style="opacity:1" fill="#a4a4a7" d="M 883.5,281.5 C 886.167,281.5 888.833,281.5 891.5,281.5C 891.5,287.5 891.5,293.5 891.5,299.5C 888.833,299.5 886.167,299.5 883.5,299.5C 883.5,299.167 883.5,298.833 883.5,298.5C 883.5,298.167 883.5,297.833 883.5,297.5C 884.5,297.5 885.5,297.5 886.5,297.5C 886.5,293.167 886.5,288.833 886.5,284.5C 885.5,284.5 884.5,284.5 883.5,284.5C 883.5,283.5 883.5,282.5 883.5,281.5 Z"/></g>
<g><path style="opacity:1" fill="#9e9ea1" d="M 930.5,291.5 C 928.375,294.088 927.042,297.088 926.5,300.5C 924.5,300.5 922.5,300.5 920.5,300.5C 920.5,299.5 920.5,298.5 920.5,297.5C 921.5,297.5 922.5,297.5 923.5,297.5C 925.892,291.163 928.392,284.829 931,278.5C 937.333,277.167 943.667,277.167 950,278.5C 952.811,284.448 955.311,290.448 957.5,296.5C 958.5,296.5 959.5,296.5 960.5,296.5C 960.5,297.833 960.5,299.167 960.5,300.5C 957.753,300.813 955.086,300.48 952.5,299.5C 950.718,295.662 950.385,295.829 951.5,300C 947.848,300.499 944.182,300.665 940.5,300.5C 940.5,299.5 940.5,298.5 940.5,297.5C 941.675,297.719 942.675,297.386 943.5,296.5C 941.257,295.526 938.924,295.192 936.5,295.5C 936.5,297.167 936.5,298.833 936.5,300.5C 933.428,300.817 930.428,300.484 927.5,299.5C 929.287,297.142 930.287,294.475 930.5,291.5 Z"/></g>
<g><path style="opacity:1" fill="#6e6e71" d="M 930.5,291.5 C 931.337,287.824 932.67,284.324 934.5,281C 937.882,280.176 941.216,280.343 944.5,281.5C 945.929,283.331 946.429,285.331 946,287.5C 945.293,285.919 944.46,284.419 943.5,283C 940.518,282.502 937.518,282.335 934.5,282.5C 933.958,285.912 932.625,288.912 930.5,291.5 Z"/></g>
<g><path style="opacity:0.695" fill="#929296" d="M 436.5,277.5 C 437.434,278.568 437.768,279.901 437.5,281.5C 441.167,281.5 444.833,281.5 448.5,281.5C 448.808,283.924 448.474,286.257 447.5,288.5C 446.534,286.604 446.201,284.604 446.5,282.5C 443.753,282.187 441.086,282.52 438.5,283.5C 439.325,284.386 440.325,284.719 441.5,284.5C 442.026,289.412 441.359,294.078 439.5,298.5C 452.167,299.833 464.833,299.833 477.5,298.5C 476.675,297.614 475.675,297.281 474.5,297.5C 474.5,293.167 474.5,288.833 474.5,284.5C 475.5,284.5 476.5,284.5 477.5,284.5C 477.5,283.5 477.5,282.5 477.5,281.5C 478.167,281.5 478.833,281.5 479.5,281.5C 479.5,282.833 479.5,284.167 479.5,285.5C 478.504,285.414 477.671,285.748 477,286.5C 476.333,289.167 476.333,291.833 477,294.5C 478.084,296.782 479.584,297.116 481.5,295.5C 481.279,296.735 480.612,297.735 479.5,298.5C 486.321,299.167 492.988,299.833 499.5,300.5C 473.048,299.671 458.715,300.005 456.5,301.5C 456.5,302.5 456.5,303.5 456.5,304.5C 449.833,304.5 443.167,304.5 436.5,304.5C 437.403,301.609 437.736,298.609 437.5,295.5C 438.5,295.5 439.5,295.5 440.5,295.5C 440.5,292.833 440.5,290.167 440.5,287.5C 438.336,287.721 436.67,288.721 435.5,290.5C 432.934,290.344 430.434,290.678 428,291.5C 426.97,291.164 426.47,290.497 426.5,289.5C 428.099,289.768 429.432,289.434 430.5,288.5C 430.833,288.5 431.167,288.5 431.5,288.5C 432.568,289.434 433.901,289.768 435.5,289.5C 436.272,285.548 436.605,281.548 436.5,277.5 Z"/></g>
<g><path style="opacity:0.996" fill="#a3a3a6" d="M 448.5,281.5 C 458.08,281.917 467.747,281.917 477.5,281.5C 477.5,282.5 477.5,283.5 477.5,284.5C 476.5,284.5 475.5,284.5 474.5,284.5C 474.5,288.833 474.5,293.167 474.5,297.5C 475.675,297.281 476.675,297.614 477.5,298.5C 464.833,299.833 452.167,299.833 439.5,298.5C 441.359,294.078 442.026,289.412 441.5,284.5C 440.325,284.719 439.325,284.386 438.5,283.5C 441.086,282.52 443.753,282.187 446.5,282.5C 446.201,284.604 446.534,286.604 447.5,288.5C 448.474,286.257 448.808,283.924 448.5,281.5 Z"/></g>
<g><path style="opacity:1" fill="#79797b" d="M 883.5,281.5 C 883.5,282.5 883.5,283.5 883.5,284.5C 884.5,284.5 885.5,284.5 886.5,284.5C 886.5,288.833 886.5,293.167 886.5,297.5C 885.5,297.5 884.5,297.5 883.5,297.5C 885.318,293.827 885.984,289.827 885.5,285.5C 884.5,285.5 883.5,285.5 882.5,285.5C 882.232,283.901 882.566,282.568 883.5,281.5 Z"/></g>
<g><path style="opacity:0.824" fill="#b6b6b9" d="M 64.5,273.5 C 64.9382,273.435 65.2716,273.601 65.5,274C 63.1765,278.456 61.3431,282.956 60,287.5C 64.3386,285.978 68.8386,285.311 73.5,285.5C 73.8333,277.5 74.1667,277.5 74.5,285.5C 74.3893,286.117 74.056,286.617 73.5,287C 68.4702,287.448 63.4702,288.114 58.5,289C 56.2838,291.553 53.7838,293.72 51,295.5C 48.0375,293.53 44.8709,292.03 41.5,291C 33.8232,290.055 26.1565,289.055 18.5,288C 17.6195,287.292 16.9528,286.458 16.5,285.5C 16.4346,285.062 16.6012,284.728 17,284.5C 17.9025,285.701 19.0692,286.535 20.5,287C 31.3,286.547 41.4667,288.713 51,293.5C 53.8462,292.562 55.0129,290.895 54.5,288.5C 55.8221,288.67 56.9887,288.337 58,287.5C 59.8911,282.638 62.0578,277.972 64.5,273.5 Z"/></g>
<g><path style="opacity:1" fill="#58585b" d="M 479.5,285.5 C 481.402,288.337 482.069,291.671 481.5,295.5C 479.584,297.116 478.084,296.782 477,294.5C 476.333,291.833 476.333,289.167 477,286.5C 477.671,285.748 478.504,285.414 479.5,285.5 Z"/></g>
<g><path style="opacity:0.698" fill="#89898c" d="M 569.5,281.5 C 569.833,281.5 570.167,281.5 570.5,281.5C 573.67,287.183 576.337,293.183 578.5,299.5C 581.136,293.221 584.136,287.221 587.5,281.5C 587.833,281.5 588.167,281.5 588.5,281.5C 586.111,288.684 582.778,295.35 578.5,301.5C 577.201,300.91 576.368,299.91 576,298.5C 573.923,292.766 571.757,287.099 569.5,281.5 Z"/></g>
<g><path style="opacity:1" fill="#777779" d="M 647.5,281.5 C 647.5,282.5 647.5,283.5 647.5,284.5C 648.5,284.5 649.5,284.5 650.5,284.5C 650.5,288.833 650.5,293.167 650.5,297.5C 649.5,297.5 648.5,297.5 647.5,297.5C 649.318,293.827 649.984,289.827 649.5,285.5C 648.5,285.5 647.5,285.5 646.5,285.5C 646.232,283.901 646.566,282.568 647.5,281.5 Z"/></g>
<g><path style="opacity:0.949" fill="#77777a" d="M 995.5,284.5 C 996.292,285.967 996.292,287.3 995.5,288.5C 993.137,289.17 990.804,289.837 988.5,290.5C 987.048,289.698 985.382,289.198 983.5,289C 985.473,288.505 987.473,288.338 989.5,288.5C 989.795,286.265 989.461,284.265 988.5,282.5C 981.505,280.471 975.338,281.804 970,286.5C 970.37,283.461 972.204,281.627 975.5,281C 980.489,280.501 985.489,280.334 990.5,280.5C 990.5,282.833 990.5,285.167 990.5,287.5C 991.833,287.5 993.167,287.5 994.5,287.5C 994.263,286.209 994.596,285.209 995.5,284.5 Z"/></g>
<g><path style="opacity:0.264" fill="#7d7d81" d="M 426.5,289.5 C 426.47,290.497 426.97,291.164 428,291.5C 430.434,290.678 432.934,290.344 435.5,290.5C 436.167,291.833 436.833,293.167 437.5,294.5C 435.958,293.699 434.292,293.366 432.5,293.5C 432.768,296.119 432.435,298.619 431.5,301C 426.5,301.667 421.5,301.667 416.5,301C 414.956,300.71 413.623,300.044 412.5,299C 418.364,300.155 424.364,300.655 430.5,300.5C 430.5,298.167 430.5,295.833 430.5,293.5C 427.579,293.283 424.913,293.949 422.5,295.5C 422.575,292.794 422.908,290.127 423.5,287.5C 424.75,287.423 425.583,286.756 426,285.5C 426.49,286.793 426.657,288.127 426.5,289.5 Z"/></g>
<g><path style="opacity:0.968" fill="#87878a" d="M 563.5,281.5 C 563.5,287.5 563.5,293.5 563.5,299.5C 565.288,299.785 566.955,299.452 568.5,298.5C 567.189,297.742 566.689,296.742 567,295.5C 568,296.833 569,296.833 570,295.5C 570.791,296.745 571.291,298.078 571.5,299.5C 568.57,300.299 565.57,300.632 562.5,300.5C 562.737,299.209 562.404,298.209 561.5,297.5C 561.5,294.5 561.5,291.5 561.5,288.5C 562.167,286.167 562.833,283.833 563.5,281.5 Z"/></g>
<g><path style="opacity:0.648" fill="#818184" d="M 764.5,281.5 C 764.5,282.5 764.5,283.5 764.5,284.5C 765.5,284.5 766.5,284.5 767.5,284.5C 767.5,288.833 767.5,293.167 767.5,297.5C 766.5,297.5 765.5,297.5 764.5,297.5C 765.397,291.966 765.397,286.632 764.5,281.5 Z"/></g>
<g><path style="opacity:0.765" fill="#868689" d="M 891.5,281.5 C 892.167,281.5 892.833,281.5 893.5,281.5C 893.5,287.5 893.5,293.5 893.5,299.5C 895.857,299.663 898.19,299.497 900.5,299C 898.893,297.951 898.227,296.451 898.5,294.5C 899.5,294.5 900.5,294.5 901.5,294.5C 901.433,295.959 901.766,297.292 902.5,298.5C 901.662,298.842 901.328,299.508 901.5,300.5C 895.31,300.823 889.31,300.49 883.5,299.5C 886.167,299.5 888.833,299.5 891.5,299.5C 891.5,293.5 891.5,287.5 891.5,281.5 Z"/></g>
<g><path style="opacity:0.989" fill="#ababae" d="M 220.5,288.5 C 219.737,289.268 218.737,289.768 217.5,290C 227.167,290.667 236.833,290.667 246.5,290C 244.292,289.809 242.292,289.309 240.5,288.5C 255.181,288.882 269.847,289.549 284.5,290.5C 286.516,291.588 288.683,292.588 291,293.5C 293.787,292.483 296.62,292.316 299.5,293C 298.934,293.995 298.267,294.828 297.5,295.5C 233.137,292.751 169.137,296.251 105.5,306C 95.554,308.324 85.554,309.991 75.5,311C 76.1667,310.333 76.8333,309.667 77.5,309C 124.262,296.058 171.929,289.224 220.5,288.5 Z"/></g>
<g><path style="opacity:0.721" fill="#ceced0" d="M 220.5,288.5 C 227.167,288.5 233.833,288.5 240.5,288.5C 242.292,289.309 244.292,289.809 246.5,290C 236.833,290.667 227.167,290.667 217.5,290C 218.737,289.768 219.737,289.268 220.5,288.5 Z"/></g>
<g><path style="opacity:0.802" fill="#616164" d="M 423.5,287.5 C 422.908,290.127 422.575,292.794 422.5,295.5C 420.612,293.012 419.945,290.012 420.5,286.5C 421.791,286.263 422.791,286.596 423.5,287.5 Z"/></g>
<g><path style="opacity:0.991" fill="#59595c" d="M 437.5,295.5 C 437.5,295.167 437.5,294.833 437.5,294.5C 436.833,293.167 436.167,291.833 435.5,290.5C 436.67,288.721 438.336,287.721 440.5,287.5C 440.5,290.167 440.5,292.833 440.5,295.5C 439.5,295.5 438.5,295.5 437.5,295.5 Z"/></g>
<g><path style="opacity:0.851" fill="#89898d" d="M 513.5,282.5 C 515.042,283.301 516.708,283.634 518.5,283.5C 517.559,288.07 517.226,292.737 517.5,297.5C 516.1,298.1 515.1,299.1 514.5,300.5C 514.649,299.448 514.483,298.448 514,297.5C 509.798,295.349 509.464,292.683 513,289.5C 513.497,287.19 513.663,284.857 513.5,282.5 Z"/></g>
<g><path style="opacity:0.694" fill="#656569" d="M 513.5,290.5 C 514.5,290.5 515.5,290.5 516.5,290.5C 516.5,292.167 516.5,293.833 516.5,295.5C 512.716,295.475 511.716,293.808 513.5,290.5 Z"/></g>
<g><path style="opacity:1" fill="#a4a4a7" d="M 674.5,290.5 C 675.833,290.5 677.167,290.5 678.5,290.5C 678.5,295.167 678.5,299.833 678.5,304.5C 667.833,304.5 657.167,304.5 646.5,304.5C 646.5,303.5 646.5,302.5 646.5,301.5C 655.833,301.5 665.167,301.5 674.5,301.5C 674.5,297.833 674.5,294.167 674.5,290.5 Z"/></g>
<g><path style="opacity:0.999" fill="#9f9fa2" d="M 284.5,290.5 C 294.171,291.119 303.837,291.786 313.5,292.5C 312.391,293.29 311.058,293.79 309.5,294C 316.833,295 324.167,296 331.5,297C 327.661,297.459 323.828,297.959 320,298.5C 318.615,298.486 317.449,298.152 316.5,297.5C 311.383,296.757 305.05,296.09 297.5,295.5C 298.267,294.828 298.934,293.995 299.5,293C 296.62,292.316 293.787,292.483 291,293.5C 288.683,292.588 286.516,291.588 284.5,290.5 Z"/></g>
<g><path style="opacity:0.304" fill="#7d7d80" d="M 916.5,290.5 C 916.5,292.5 916.5,294.5 916.5,296.5C 911.541,294.037 911.541,292.037 916.5,290.5 Z"/></g>
<g><path style="opacity:1" fill="#a3a3a6" d="M 637.5,295.5 C 637.5,298.5 637.5,301.5 637.5,304.5C 626.833,304.5 616.167,304.5 605.5,304.5C 605.5,303.5 605.5,302.5 605.5,301.5C 614.5,301.5 623.5,301.5 632.5,301.5C 632.5,299.5 632.5,297.5 632.5,295.5C 634.167,295.5 635.833,295.5 637.5,295.5 Z"/></g>
<g><path style="opacity:1" fill="#a2a2a5" d="M 791.5,295.5 C 793.167,295.5 794.833,295.5 796.5,295.5C 796.5,298.5 796.5,301.5 796.5,304.5C 785.5,304.5 774.5,304.5 763.5,304.5C 763.5,303.5 763.5,302.5 763.5,301.5C 772.833,301.5 782.167,301.5 791.5,301.5C 791.5,299.5 791.5,297.5 791.5,295.5 Z"/></g>
<g><path style="opacity:0.294" fill="#929295" d="M 988.5,282.5 C 989.461,284.265 989.795,286.265 989.5,288.5C 987.473,288.338 985.473,288.505 983.5,289C 985.382,289.198 987.048,289.698 988.5,290.5C 985.833,290.5 983.167,290.5 980.5,290.5C 980.5,291.833 980.5,293.167 980.5,294.5C 981.5,294.5 982.5,294.5 983.5,294.5C 983.5,295.5 983.5,296.5 983.5,297.5C 980.927,297.852 978.594,297.352 976.5,296C 977.416,295.722 978.082,295.222 978.5,294.5C 978.298,292.05 978.631,289.717 979.5,287.5C 979.082,286.778 978.416,286.278 977.5,286C 979.066,285.235 980.399,285.402 981.5,286.5C 980.255,286.969 980.421,287.303 982,287.5C 982.945,287.095 983.612,286.428 984,285.5C 985.049,287.107 986.549,287.773 988.5,287.5C 988.5,285.833 988.5,284.167 988.5,282.5 Z"/></g>
<g><path style="opacity:1" fill="#a4a4a7" d="M 1024.5,295.5 C 1026.17,295.5 1027.83,295.5 1029.5,295.5C 1029.5,298.5 1029.5,301.5 1029.5,304.5C 1018.83,304.5 1008.17,304.5 997.5,304.5C 997.5,303.5 997.5,302.5 997.5,301.5C 1006.5,301.5 1015.5,301.5 1024.5,301.5C 1024.5,299.5 1024.5,297.5 1024.5,295.5 Z"/></g>
<g><path style="opacity:0.651" fill="#8b8b8e" d="M 754.5,283.5 C 754.833,283.5 755.167,283.5 755.5,283.5C 753.161,286.506 750.494,289.173 747.5,291.5C 749.856,294.186 752.189,296.853 754.5,299.5C 745.359,300.196 736.359,300.196 727.5,299.5C 730.173,296.494 732.84,293.494 735.5,290.5C 734.851,293.753 732.851,296.586 729.5,299C 732.554,299.821 735.554,299.655 738.5,298.5C 737.833,297.833 737.167,297.167 736.5,296.5C 737.48,295.019 738.647,293.685 740,292.5C 741.353,293.685 742.52,295.019 743.5,296.5C 742.833,297.167 742.167,297.833 741.5,298.5C 745.122,299.659 748.789,299.825 752.5,299C 749.983,296.651 747.65,294.151 745.5,291.5C 748.303,288.601 751.303,285.934 754.5,283.5 Z"/></g>
<g><path style="opacity:0.353" fill="#8d8d90" d="M 868.5,287.5 C 870.731,290.836 872.397,294.503 873.5,298.5C 865.772,300.418 857.772,301.085 849.5,300.5C 849.263,299.209 849.596,298.209 850.5,297.5C 851.334,298.748 852.667,299.415 854.5,299.5C 859.73,298.935 859.73,298.102 854.5,297C 858.167,293.667 861.833,293.667 865.5,297C 864.062,297.219 862.729,297.719 861.5,298.5C 864.768,299.487 868.102,299.82 871.5,299.5C 870.562,295.687 869.229,292.021 867.5,288.5C 868.167,288.5 868.5,288.167 868.5,287.5 Z"/></g>
<g><path style="opacity:1" fill="#a7a7aa" d="M 406.5,275.5 C 407.283,279.393 409.283,280.227 412.5,278C 420.493,277.5 428.493,277.334 436.5,277.5C 436.605,281.548 436.272,285.548 435.5,289.5C 433.901,289.768 432.568,289.434 431.5,288.5C 431.5,285.833 431.5,283.167 431.5,280.5C 426.041,280.103 420.708,280.603 415.5,282C 420.489,282.499 425.489,282.666 430.5,282.5C 430.5,284.5 430.5,286.5 430.5,288.5C 429.432,289.434 428.099,289.768 426.5,289.5C 426.657,288.127 426.49,286.793 426,285.5C 425.583,286.756 424.75,287.423 423.5,287.5C 422.791,286.596 421.791,286.263 420.5,286.5C 419.945,290.012 420.612,293.012 422.5,295.5C 424.913,293.949 427.579,293.283 430.5,293.5C 430.5,295.833 430.5,298.167 430.5,300.5C 424.364,300.655 418.364,300.155 412.5,299C 413.623,300.044 414.956,300.71 416.5,301C 421.5,301.667 426.5,301.667 431.5,301C 432.435,298.619 432.768,296.119 432.5,293.5C 434.292,293.366 435.958,293.699 437.5,294.5C 437.5,294.833 437.5,295.167 437.5,295.5C 437.736,298.609 437.403,301.609 436.5,304.5C 428.852,305.43 421.185,305.597 413.5,305C 410.241,303.789 407.408,301.956 405,299.5C 406.386,304.081 409.22,307.747 413.5,310.5C 420.154,317.781 423.487,326.447 423.5,336.5C 422.325,336.719 421.325,336.386 420.5,335.5C 418.961,326.126 414.628,318.293 407.5,312C 400.53,310.162 393.53,310.162 386.5,312C 366.146,320.339 345.146,326.672 323.5,331C 297.205,333.843 272.872,328.343 250.5,314.5C 249.24,312.647 249.24,310.814 250.5,309C 257.147,305.868 264.147,303.868 271.5,303C 286.481,300.97 301.481,299.137 316.5,297.5C 317.449,298.152 318.615,298.486 320,298.5C 323.828,297.959 327.661,297.459 331.5,297C 324.167,296 316.833,295 309.5,294C 311.058,293.79 312.391,293.29 313.5,292.5C 327.546,293.48 341.546,294.98 355.5,297C 333.162,299.619 310.828,302.619 288.5,306C 285.56,307.152 282.56,308.152 279.5,309C 279.043,309.414 278.709,309.914 278.5,310.5C 279.5,311.333 280.5,312.167 281.5,313C 291.487,316.191 301.653,318.357 312,319.5C 324.837,318.384 337.671,317.218 350.5,316C 367.57,312.796 383.237,306.296 397.5,296.5C 398.76,294.647 398.76,292.814 397.5,291C 388.594,289.647 380.428,291.481 373,296.5C 370.352,295.018 368.185,293.018 366.5,290.5C 370.156,290.953 373.822,290.453 377.5,289C 381.745,287.089 385.745,284.755 389.5,282C 392.856,282.613 396.19,282.446 399.5,281.5C 399.838,278.675 398.838,276.508 396.5,275C 385.049,270.633 378.882,274.466 378,286.5C 375.443,287.646 374.11,286.646 374,283.5C 373.198,278.581 373.365,273.748 374.5,269C 382.795,267.233 391.129,267.233 399.5,269C 402.358,270.694 404.691,272.861 406.5,275.5 Z"/></g>
<g><path style="opacity:1" fill="#767679" d="M 431.5,288.5 C 431.167,288.5 430.833,288.5 430.5,288.5C 430.5,286.5 430.5,284.5 430.5,282.5C 425.489,282.666 420.489,282.499 415.5,282C 420.708,280.603 426.041,280.103 431.5,280.5C 431.5,283.167 431.5,285.833 431.5,288.5 Z"/></g>
<g><path style="opacity:1" fill="#6d6d70" d="M 709.5,296.5 C 710.525,296.897 710.692,297.563 710,298.5C 708.829,299.893 707.329,300.727 705.5,301C 701.309,301.922 697.309,301.588 693.5,300C 698.167,299.667 702.833,299.333 707.5,299C 708.381,298.292 709.047,297.458 709.5,296.5 Z"/></g>
<g><path style="opacity:0.643" fill="#6a6a6d" d="M 499.5,300.5 C 500.167,300.5 500.5,300.833 500.5,301.5C 499.5,301.5 498.5,301.5 497.5,301.5C 491.5,301.5 485.5,301.5 479.5,301.5C 479.5,302.5 479.5,303.5 479.5,304.5C 478.5,304.5 477.5,304.5 476.5,304.5C 476.414,303.504 476.748,302.671 477.5,302C 471.509,301.501 465.509,301.334 459.5,301.5C 459.5,302.5 459.5,303.5 459.5,304.5C 458.5,304.5 457.5,304.5 456.5,304.5C 456.5,303.5 456.5,302.5 456.5,301.5C 458.715,300.005 473.048,299.671 499.5,300.5 Z"/></g>
<g><path style="opacity:1" fill="#666669" d="M 527.5,300.5 C 532.31,300.525 537.31,300.358 542.5,300C 537.535,301.776 532.535,301.942 527.5,300.5 Z"/></g>
<g><path style="opacity:0.992" fill="#656568" d="M 637.5,283.5 C 637.5,284.833 637.5,286.167 637.5,287.5C 635.833,287.5 634.167,287.5 632.5,287.5C 632.5,289.833 632.5,292.167 632.5,294.5C 634.415,294.216 636.081,294.549 637.5,295.5C 635.833,295.5 634.167,295.5 632.5,295.5C 632.5,297.5 632.5,299.5 632.5,301.5C 623.5,301.5 614.5,301.5 605.5,301.5C 605.5,302.5 605.5,303.5 605.5,304.5C 604.833,304.5 604.167,304.5 603.5,304.5C 603.5,303.5 603.5,302.5 603.5,301.5C 597.833,301.5 592.167,301.5 586.5,301.5C 586.5,302.5 586.5,303.5 586.5,304.5C 585.609,303.89 584.609,303.557 583.5,303.5C 583.629,301.784 583.962,300.117 584.5,298.5C 587.818,299.661 591.318,300.328 595,300.5C 607.083,300.224 619.249,300.224 631.5,300.5C 631.5,298.833 631.5,297.167 631.5,295.5C 624.833,294.833 624.833,294.167 631.5,293.5C 631.859,291.234 631.192,289.401 629.5,288C 631.677,286.798 634.011,286.298 636.5,286.5C 636.263,285.209 636.596,284.209 637.5,283.5 Z"/></g>
<g><path style="opacity:1" fill="#626265" d="M 868.5,287.5 C 868.5,288.167 868.167,288.5 867.5,288.5C 867.123,286.742 866.456,285.075 865.5,283.5C 862.554,282.345 859.554,282.179 856.5,283C 854.401,287.8 852.401,292.633 850.5,297.5C 849.596,298.209 849.263,299.209 849.5,300.5C 857.772,301.085 865.772,300.418 873.5,298.5C 873.611,299.117 873.944,299.617 874.5,300C 876.81,300.497 879.143,300.663 881.5,300.5C 881.473,298.801 880.806,297.467 879.5,296.5C 881.199,296.527 882.533,297.194 883.5,298.5C 883.5,298.833 883.5,299.167 883.5,299.5C 889.31,300.49 895.31,300.823 901.5,300.5C 901.768,302.099 901.434,303.432 900.5,304.5C 900.5,303.5 900.5,302.5 900.5,301.5C 894.833,301.5 889.167,301.5 883.5,301.5C 883.5,302.5 883.5,303.5 883.5,304.5C 882.833,303.833 882.167,303.167 881.5,302.5C 875.021,301.509 868.354,301.176 861.5,301.5C 861.5,302.5 861.5,303.5 861.5,304.5C 860.849,303.909 860.182,303.243 859.5,302.5C 858.818,303.243 858.151,303.909 857.5,304.5C 857.5,303.5 857.5,302.5 857.5,301.5C 852.167,301.5 846.833,301.5 841.5,301.5C 841.167,301.5 840.833,301.5 840.5,301.5C 840.409,299.302 841.075,298.969 842.5,300.5C 844.467,300.739 846.301,300.406 848,299.5C 850.402,293.459 852.902,287.459 855.5,281.5C 859.107,280.511 862.774,280.177 866.5,280.5C 866.878,282.921 867.545,285.254 868.5,287.5 Z"/></g>
<g><path style="opacity:1" fill="#616164" d="M 969.5,298.5 C 969.56,297.957 969.893,297.624 970.5,297.5C 971.912,298.806 973.579,299.64 975.5,300C 980.436,300.397 985.103,300.564 989.5,300.5C 984.198,301.663 978.864,301.829 973.5,301C 972.016,300.338 970.683,299.504 969.5,298.5 Z"/></g>
<g><path style="opacity:1" fill="#a4a4a7" d="M 476.5,304.5 C 470.833,304.5 465.167,304.5 459.5,304.5C 459.5,303.5 459.5,302.5 459.5,301.5C 465.509,301.334 471.509,301.501 477.5,302C 476.748,302.671 476.414,303.504 476.5,304.5 Z"/></g>
<g><path style="opacity:1" fill="#a3a3a6" d="M 497.5,301.5 C 497.5,302.5 497.5,303.5 497.5,304.5C 491.5,304.5 485.5,304.5 479.5,304.5C 479.5,303.5 479.5,302.5 479.5,301.5C 485.5,301.5 491.5,301.5 497.5,301.5 Z"/></g>
<g><path style="opacity:1" fill="#a4a4a7" d="M 554.5,301.5 C 559.167,301.5 563.833,301.5 568.5,301.5C 568.5,302.5 568.5,303.5 568.5,304.5C 563.833,304.5 559.167,304.5 554.5,304.5C 554.5,303.5 554.5,302.5 554.5,301.5 Z"/></g>
<g><path style="opacity:1" fill="#a3a3a6" d="M 603.5,304.5 C 597.833,304.5 592.167,304.5 586.5,304.5C 586.5,303.5 586.5,302.5 586.5,301.5C 592.167,301.5 597.833,301.5 603.5,301.5C 603.5,302.5 603.5,303.5 603.5,304.5 Z"/></g>
<g><path style="opacity:1" fill="#a3a3a6" d="M 721.5,301.5 C 727.167,301.5 732.833,301.5 738.5,301.5C 738.5,302.5 738.5,303.5 738.5,304.5C 732.833,304.5 727.167,304.5 721.5,304.5C 721.5,303.5 721.5,302.5 721.5,301.5 Z"/></g>
<g><path style="opacity:1" fill="#a4a4a7" d="M 740.5,301.5 C 747.5,301.5 754.5,301.5 761.5,301.5C 761.5,302.5 761.5,303.5 761.5,304.5C 754.5,304.5 747.5,304.5 740.5,304.5C 740.5,303.5 740.5,302.5 740.5,301.5 Z"/></g>
<g><path style="opacity:1" fill="#a4a4a7" d="M 841.5,301.5 C 846.833,301.5 852.167,301.5 857.5,301.5C 857.5,302.5 857.5,303.5 857.5,304.5C 852.167,304.5 846.833,304.5 841.5,304.5C 841.5,303.5 841.5,302.5 841.5,301.5 Z"/></g>
<g><path style="opacity:1" fill="#a4a4a7" d="M 881.5,302.5 C 875.25,304.459 868.584,305.126 861.5,304.5C 861.5,303.5 861.5,302.5 861.5,301.5C 868.354,301.176 875.021,301.509 881.5,302.5 Z"/></g>
<g><path style="opacity:1" fill="#a4a5a7" d="M 900.5,304.5 C 894.833,304.5 889.167,304.5 883.5,304.5C 883.5,303.5 883.5,302.5 883.5,301.5C 889.167,301.5 894.833,301.5 900.5,301.5C 900.5,302.5 900.5,303.5 900.5,304.5 Z"/></g>
<g><path style="opacity:1" fill="#a4a4a7" d="M 920.5,301.5 C 925.833,301.5 931.167,301.5 936.5,301.5C 936.5,302.5 936.5,303.5 936.5,304.5C 931.167,304.5 925.833,304.5 920.5,304.5C 920.5,303.5 920.5,302.5 920.5,301.5 Z"/></g>
<g><path style="opacity:1" fill="#a4a4a7" d="M 939.5,301.5 C 946.167,301.5 952.833,301.5 959.5,301.5C 959.5,302.5 959.5,303.5 959.5,304.5C 952.833,304.5 946.167,304.5 939.5,304.5C 939.5,303.5 939.5,302.5 939.5,301.5 Z"/></g>
</svg>
